<mxfile host="app.diagrams.net" modified="2021-10-02T08:51:05.502Z" agent="5.0 (Windows NT 10.0; Win64; x64) AppleWebKit/537.36 (KHTML, like Gecko) Chrome/87.0.4280.88 Safari/537.36" etag="4wl6xfQjomD9_A_yNHYz" version="15.4.1" type="github">
  <diagram id="IBVISO_YkuaJjXkOBGUL" name="Page-1">
    <mxGraphModel dx="1422" dy="794" grid="1" gridSize="10" guides="1" tooltips="1" connect="1" arrows="1" fold="1" page="1" pageScale="1" pageWidth="827" pageHeight="1169" math="0" shadow="0">
      <root>
        <mxCell id="0" />
        <mxCell id="1" parent="0" />
        <mxCell id="THGhkV9sPrOZRZwnHmfn-1" value="" style="shape=flexArrow;endArrow=classic;html=1;rounded=0;strokeWidth=1;edgeStyle=orthogonalEdgeStyle;width=13.714285714285714;endSize=3.8628571428571425;" edge="1" parent="1">
          <mxGeometry width="50" height="50" relative="1" as="geometry">
            <mxPoint x="620" y="34.710000000000036" as="sourcePoint" />
            <mxPoint x="650" y="34.710000000000036" as="targetPoint" />
            <Array as="points">
              <mxPoint x="630" y="35" />
              <mxPoint x="630" y="35" />
            </Array>
          </mxGeometry>
        </mxCell>
        <mxCell id="THGhkV9sPrOZRZwnHmfn-2" value=": call" style="text;html=1;strokeColor=none;fillColor=none;align=center;verticalAlign=middle;whiteSpace=wrap;rounded=0;" vertex="1" parent="1">
          <mxGeometry x="640" y="20" width="60" height="30" as="geometry" />
        </mxCell>
        <mxCell id="THGhkV9sPrOZRZwnHmfn-3" value="" style="endArrow=classic;html=1;rounded=0;strokeWidth=1;edgeStyle=orthogonalEdgeStyle;" edge="1" parent="1">
          <mxGeometry width="50" height="50" relative="1" as="geometry">
            <mxPoint x="710" y="40" as="sourcePoint" />
            <mxPoint x="740" y="40" as="targetPoint" />
          </mxGeometry>
        </mxCell>
        <mxCell id="THGhkV9sPrOZRZwnHmfn-4" value=": ret" style="text;html=1;strokeColor=none;fillColor=none;align=center;verticalAlign=middle;whiteSpace=wrap;rounded=0;" vertex="1" parent="1">
          <mxGeometry x="730" y="20" width="60" height="30" as="geometry" />
        </mxCell>
        <mxCell id="THGhkV9sPrOZRZwnHmfn-5" value="" style="rounded=1;whiteSpace=wrap;html=1;fillColor=none;strokeColor=default;shadow=0;sketch=0;glass=1;" vertex="1" parent="1">
          <mxGeometry x="620" y="75" width="30" height="20" as="geometry" />
        </mxCell>
        <mxCell id="THGhkV9sPrOZRZwnHmfn-6" value=": loop" style="text;html=1;strokeColor=none;fillColor=none;align=center;verticalAlign=middle;whiteSpace=wrap;rounded=0;" vertex="1" parent="1">
          <mxGeometry x="640" y="70" width="60" height="30" as="geometry" />
        </mxCell>
      </root>
    </mxGraphModel>
  </diagram>
</mxfile>
